<svg xmlns="http://www.w3.org/2000/svg" width="160" height="160" viewBox="0 0 160 160" fill="none">
  <g filter="url(#filter0_d_1_695)">
    <rect x="30" y="10" width="100" height="100" rx="5" fill="#3C4BA6"/>
  </g>
  <path d="M89.9241 54.9684C90.824 57.0253 91.3382 59.275 91.3382 61.7176C91.3382 70.9093 83.882 78.3656 74.6902 78.3656C65.4984 78.3656 58.0421 70.9093 58.0421 61.7176C58.0421 52.4615 65.4984 45.0052 74.6902 45.0052C77.0685 45.0052 79.3825 45.5195 81.4394 46.4194L85.4889 41.5985C82.275 39.863 78.6112 38.8988 74.7545 38.8988C62.2202 38.8988 52 49.119 52 61.6533C52 69.6881 56.2424 76.8229 62.5416 80.8082L59.0063 87.0432C58.6849 87.6217 58.6849 88.393 59.0063 89.0358C59.3277 89.6143 60.0348 90 60.6776 90H88.7028C89.4099 90 90.0527 89.6143 90.3741 89.0358C90.6955 88.4573 90.7597 87.6859 90.3741 87.0432L86.8388 80.8082C93.2023 76.7587 97.3804 69.6881 97.3804 61.6533C97.3804 57.7966 96.4162 54.1327 94.6807 50.9188L89.9241 54.9684Z" fill="white"/>
  <path d="M77.9682 50.5331C76.9398 50.2118 75.7827 50.0189 74.69 50.0189C68.2622 50.0189 63.0557 55.2255 63.0557 61.6533C63.0557 68.0168 68.2622 73.2876 74.69 73.2876C81.0536 73.2876 86.3244 68.0811 86.3244 61.6533C86.3244 60.4963 86.1315 59.4035 85.8744 58.3751L77.9682 64.9315C76.0399 66.5384 73.0831 66.2813 71.4761 64.353C69.9977 62.6174 70.062 60.1106 71.4761 58.4394L77.9682 50.5331Z" fill="white"/>
  <path d="M107.279 36.5205C107.15 36.1349 106.765 35.8778 106.315 35.8778H100.466V30.0285C100.466 29.6428 100.208 29.2571 99.8228 29.0643C99.4371 28.9357 98.9872 29 98.7301 29.2571L91.7237 36.2634C91.5309 36.4563 91.4023 36.7134 91.4023 36.9705V40.8915L73.4044 60.3678C72.7617 61.0748 72.7617 62.1675 73.4044 62.8746C74.1115 63.6459 75.2685 63.6459 75.9756 62.9389L95.3876 44.8767H99.3086C99.5657 44.8767 99.8228 44.7482 100.016 44.5553L107.022 37.549C107.343 37.3562 107.408 36.9062 107.279 36.5205Z" fill="white"/>
  <defs>
    <filter id="filter0_d_1_695" x="0" y="0" width="160" height="160" filterUnits="userSpaceOnUse" color-interpolation-filters="sRGB">
      <feFlood flood-opacity="0" result="BackgroundImageFix"/>
      <feColorMatrix in="SourceAlpha" type="matrix" values="0 0 0 0 0 0 0 0 0 0 0 0 0 0 0 0 0 0 127 0" result="hardAlpha"/>
      <feOffset dy="20"/>
      <feGaussianBlur stdDeviation="15"/>
      <feColorMatrix type="matrix" values="0 0 0 0 0.76875 0 0 0 0 0.781132 0 0 0 0 0.85625 0 0 0 0.4 0"/>
      <feBlend mode="normal" in2="BackgroundImageFix" result="effect1_dropShadow_1_695"/>
      <feBlend mode="normal" in="SourceGraphic" in2="effect1_dropShadow_1_695" result="shape"/>
    </filter>
  </defs>
</svg>