<svg xmlns="http://www.w3.org/2000/svg" width="79" height="22" viewBox="0 0 79 22" fill="none">
  <path d="M0.931885 0.699999H9.47188C11.1332 0.699999 12.5052 1.176 13.5879 2.128C14.6706 3.06133 15.2119 4.89067 15.2119 7.616C15.2119 12.3573 13.3172 14.728 9.52789 14.728C8.94922 14.728 8.09988 14.6813 6.97989 14.588C5.85988 14.4947 4.99188 14.4013 4.37588 14.308V21.364H0.931885V0.699999ZM9.02388 11.592C9.88255 11.592 10.5452 11.284 11.0119 10.668C11.4972 10.052 11.7399 9.044 11.7399 7.644C11.7399 5.08667 10.8719 3.808 9.13589 3.808H4.37588V11.592H9.02388Z" fill="#191919"/>
  <path d="M24.1224 21.504C22.4611 21.504 21.1544 21.28 20.2024 20.832C19.2691 20.3653 18.5878 19.5907 18.1584 18.508C17.7478 17.4067 17.5424 15.8573 17.5424 13.86C17.5424 11.8253 17.7384 10.2573 18.1304 9.156C18.5411 8.05467 19.2038 7.28 20.1184 6.832C21.0518 6.384 22.3584 6.16 24.0384 6.16C25.5131 6.16 26.6798 6.30933 27.5384 6.608C28.3971 6.90667 29.0224 7.42933 29.4144 8.176C29.8064 8.904 30.0024 9.93067 30.0024 11.256C30.0024 12.6373 29.6011 13.6267 28.7984 14.224C28.0144 14.8213 26.8664 15.12 25.3544 15.12H20.9584C20.9958 16.0907 21.1264 16.8467 21.3504 17.388C21.5744 17.9107 21.9664 18.2933 22.5264 18.536C23.1051 18.7787 23.9358 18.9 25.0184 18.9H29.5544V20.944C28.5464 21.1307 27.6411 21.2707 26.8384 21.364C26.0544 21.4573 25.1491 21.504 24.1224 21.504ZM25.0184 13.02C25.6904 13.02 26.1758 12.8893 26.4744 12.628C26.7731 12.3667 26.9224 11.9093 26.9224 11.256C26.9224 10.2853 26.7078 9.61333 26.2784 9.24C25.8491 8.86667 25.1024 8.68 24.0384 8.68C23.2358 8.68 22.6104 8.81067 22.1624 9.072C21.7331 9.31467 21.4158 9.744 21.2104 10.36C21.0238 10.976 20.9304 11.8627 20.9304 13.02H25.0184Z" fill="#191919"/>
  <path d="M41.1482 21.532C40.2149 21.532 39.3749 21.392 38.6282 21.112C37.9002 20.8133 37.2095 20.412 36.5562 19.908L35.9682 21.364H33.0842V0H36.5562V7.504C37.2655 7.112 38.0122 6.79467 38.7962 6.552C39.5989 6.29067 40.3269 6.16 40.9802 6.16C42.2495 6.16 43.2762 6.42133 44.0602 6.944C44.8442 7.46667 45.4135 8.30667 45.7682 9.464C46.1415 10.6027 46.3282 12.1147 46.3282 14C46.3282 16.5013 45.9082 18.3867 45.0682 19.656C44.2282 20.9067 42.9215 21.532 41.1482 21.532ZM39.8882 18.704C40.8402 18.704 41.5682 18.3213 42.0722 17.556C42.5949 16.7907 42.8562 15.5493 42.8562 13.832C42.8562 12.488 42.7255 11.4613 42.4642 10.752C42.2215 10.0427 41.8855 9.56667 41.4562 9.324C41.0455 9.08133 40.5229 8.96 39.8882 8.96C38.8429 8.96 37.7322 9.28667 36.5562 9.94V17.78C37.7135 18.396 38.8242 18.704 39.8882 18.704Z" fill="#191919"/>
  <path d="M55.6804 21.504C54.0564 21.504 52.7591 21.2707 51.7884 20.804C50.8177 20.3373 50.0991 19.5533 49.6324 18.452C49.1844 17.3507 48.9604 15.8107 48.9604 13.832C48.9604 11.7787 49.1844 10.2013 49.6324 9.1C50.0991 7.99867 50.8084 7.23333 51.7604 6.804C52.7311 6.37467 54.0378 6.16 55.6804 6.16C57.3418 6.16 58.6484 6.384 59.6004 6.832C60.5711 7.26133 61.2897 8.036 61.7564 9.156C62.2231 10.2573 62.4564 11.816 62.4564 13.832C62.4564 15.848 62.2324 17.4067 61.7844 18.508C61.3364 19.6093 60.6271 20.384 59.6564 20.832C58.6857 21.28 57.3604 21.504 55.6804 21.504ZM55.6804 18.732C56.5204 18.732 57.1644 18.62 57.6124 18.396C58.0791 18.172 58.4244 17.7147 58.6484 17.024C58.8724 16.3147 58.9844 15.2413 58.9844 13.804C58.9844 12.3853 58.8724 11.3307 58.6484 10.64C58.4244 9.93067 58.0791 9.47333 57.6124 9.268C57.1644 9.044 56.5204 8.932 55.6804 8.932C54.8591 8.932 54.2151 9.044 53.7484 9.268C53.3004 9.47333 52.9644 9.93067 52.7404 10.64C52.5164 11.3307 52.4044 12.3853 52.4044 13.804C52.4044 15.2413 52.5164 16.3147 52.7404 17.024C52.9644 17.7147 53.3004 18.172 53.7484 18.396C54.2151 18.62 54.8591 18.732 55.6804 18.732Z" fill="#191919"/>
  <path d="M71.8132 21.504C70.1892 21.504 68.8919 21.2707 67.9212 20.804C66.9506 20.3373 66.2319 19.5533 65.7652 18.452C65.3172 17.3507 65.0932 15.8107 65.0932 13.832C65.0932 11.7787 65.3172 10.2013 65.7652 9.1C66.2319 7.99867 66.9412 7.23333 67.8932 6.804C68.8639 6.37467 70.1706 6.16 71.8132 6.16C73.4746 6.16 74.7812 6.384 75.7332 6.832C76.7039 7.26133 77.4226 8.036 77.8892 9.156C78.3559 10.2573 78.5892 11.816 78.5892 13.832C78.5892 15.848 78.3652 17.4067 77.9172 18.508C77.4692 19.6093 76.7599 20.384 75.7892 20.832C74.8186 21.28 73.4932 21.504 71.8132 21.504ZM71.8132 18.732C72.6532 18.732 73.2972 18.62 73.7452 18.396C74.2119 18.172 74.5572 17.7147 74.7812 17.024C75.0052 16.3147 75.1172 15.2413 75.1172 13.804C75.1172 12.3853 75.0052 11.3307 74.7812 10.64C74.5572 9.93067 74.2119 9.47333 73.7452 9.268C73.2972 9.044 72.6532 8.932 71.8132 8.932C70.9919 8.932 70.3479 9.044 69.8812 9.268C69.4332 9.47333 69.0972 9.93067 68.8732 10.64C68.6492 11.3307 68.5372 12.3853 68.5372 13.804C68.5372 15.2413 68.6492 16.3147 68.8732 17.024C69.0972 17.7147 69.4332 18.172 69.8812 18.396C70.3479 18.62 70.9919 18.732 71.8132 18.732Z" fill="#191919"/>
</svg>