<svg xmlns="http://www.w3.org/2000/svg" width="147" height="121" viewBox="0 0 147 121" fill="none">
  <mask id="mask0_1_717" style="mask-type:alpha" maskUnits="userSpaceOnUse" x="0" y="0" width="147" height="121">
    <rect width="147" height="121" fill="#F6F9FF"/>
  </mask>
  <g mask="url(#mask0_1_717)">
    <path d="M213.961 117.53L213.96 117.531C188.096 137.335 154.267 157.177 119.253 167.365C103.66 171.862 88.5523 173.827 76.4144 172.986C64.1658 172.138 55.4248 168.478 51.8275 162.262L51.8262 162.26C48.3897 156.345 50.2294 149.476 54.929 141.488C57.2538 137.537 60.2034 133.44 63.3607 129.21C64.1625 128.136 64.9785 127.052 65.8001 125.961C68.1962 122.779 70.6396 119.535 72.9176 116.278C76.4435 111.242 78.1365 106.202 76.8774 101.976C75.5768 97.6112 71.3744 94.8286 64.8318 93.8096L64.8306 93.8094C60.9121 93.2022 56.4551 93.621 51.7641 94.6078C47.0612 95.597 42.0286 97.1783 36.9306 98.9668C33.4948 100.172 30.043 101.465 26.6304 102.743C19.8245 105.293 13.1746 107.783 7.11893 109.404L7.11115 109.407C-7.93043 113.52 -21.9513 114.631 -32.5824 112.654C-43.2481 110.672 -49.4402 105.816 -50.9735 99.3635L-50.9738 99.3624C-52.523 92.8642 -51.0894 85.1499 -46.4963 76.7139C-43.9508 72.2472 -40.981 67.7218 -37.6007 63.1624L-37.5935 63.1527L-37.5864 63.1429C-36.7473 61.972 -35.8233 60.3217 -34.869 58.6174C-34.4883 57.9373 -34.1027 57.2487 -33.7157 56.5784C-32.2981 54.1229 -30.8081 51.8042 -29.2097 50.2799L-25.3177 46.5684L-30.5688 47.7298C-31.9652 48.0386 -33.759 48.4047 -35.5241 48.7649C-36.1455 48.8917 -36.7635 49.0178 -37.3593 49.1405C-38.4961 49.3745 -39.5527 49.5959 -40.3834 49.7828C-41.1012 49.9443 -41.8031 50.1115 -42.1911 50.2596C-54.0361 54.2096 -65.4872 61.5683 -74.7418 67.8521C-84.0178 74.1212 -94.8251 77.2937 -102.312 77.1802C-106.11 77.1227 -108.694 76.2284 -109.952 74.881C-111.045 73.7096 -111.494 71.7635 -109.868 68.4473L-109.867 68.4452C-105.555 59.6151 -96.135 50.6229 -83.841 42.4501C-71.5852 34.3027 -56.635 27.0763 -41.4836 21.7146C-26.3263 16.3508 -11.038 12.8782 1.89106 12.1901C14.9199 11.4968 25.139 13.6518 30.6257 19.0504C33.723 22.1054 34.3186 26.035 33.1473 30.7631C31.9605 35.5532 28.9978 40.9393 25.279 46.4972L25.2771 46.5001C23.754 48.7875 21.9023 51.2049 19.9767 53.7188C18.7516 55.3182 17.4965 56.9567 16.2771 58.6257C13.2474 62.7723 10.4409 67.1077 9.5725 70.9509C9.53417 71.1017 9.49582 71.2513 9.45782 71.3996C9.19656 72.4194 8.95244 73.3721 8.85041 74.1338C8.7507 74.8782 8.65336 76.2505 9.75505 77.088C10.2706 77.4799 10.8673 77.5985 11.3792 77.6191C11.8942 77.6398 12.4595 77.567 13.0505 77.4458C14.2325 77.2034 15.8066 76.7045 17.8369 75.9881L17.8516 75.9829L17.8663 75.9774C30.0653 71.3843 42.337 67.1514 54.6137 63.3021C81.1836 55.5898 103.852 55.8094 118.972 61.3606C126.524 64.1334 132.11 68.2028 135.428 73.1878C138.725 78.1401 139.868 84.1197 138.335 90.9415C136.39 99.1829 130.543 107.646 123.292 116.935C122.544 117.887 121.486 119.103 120.277 120.494C120.162 120.625 120.046 120.759 119.929 120.893C118.589 122.435 117.109 124.148 115.766 125.845C114.43 127.533 113.186 129.258 112.341 130.828C111.919 131.613 111.57 132.407 111.369 133.172C111.172 133.925 111.086 134.77 111.331 135.585L111.353 135.658L111.383 135.729L111.47 135.94L111.72 136.539L112.327 136.767C113.721 137.292 115.503 137.31 117.32 136.99C122.305 136.19 127.571 134.619 132.621 132.434C148.09 126.186 161.81 116.956 173.285 108.151C188.837 96.2622 206.864 93.3653 216.92 96.1684C221.973 97.5768 224.461 100.206 224.485 103.325C224.511 106.69 221.778 111.555 213.961 117.53Z" fill="white" stroke="#191919" stroke-width="3"/>
    <rect x="-5" y="90" width="94" height="31" fill="white"/>
  </g>
</svg>