<svg xmlns="http://www.w3.org/2000/svg" width="22" height="12" viewBox="0 0 22 12" fill="none">
  <path d="M15.0568 0.00065065C14.9226 0.00697903 14.7933 0.0529879 14.6852 0.132853C14.5772 0.212718 14.4952 0.322848 14.4498 0.449301C14.4044 0.575754 14.3975 0.712844 14.43 0.843215C14.4625 0.973587 14.533 1.09138 14.6325 1.18168L18.7767 4.98642H1.5139C1.49035 4.98529 1.46673 4.98529 1.44318 4.98642C1.08766 5.00487 0.781109 5.34517 0.799626 5.7007C0.818142 6.0562 1.15839 6.36283 1.5139 6.34425H18.7767L14.6325 10.1419C14.5619 10.2009 14.5039 10.2735 14.4622 10.3555C14.4205 10.4375 14.3959 10.5272 14.3899 10.619C14.3839 10.7108 14.3966 10.8028 14.4273 10.8896C14.4579 10.9763 14.5059 11.0559 14.5683 11.1235C14.6306 11.1912 14.7061 11.2454 14.7901 11.283C14.874 11.3206 14.9647 11.3407 15.0567 11.3422C15.1487 11.3436 15.24 11.3264 15.3251 11.2915C15.4103 11.2566 15.4874 11.2047 15.5519 11.1391L20.9832 6.16038C21.0519 6.09681 21.1068 6.0197 21.1443 5.93389C21.1819 5.84809 21.2012 5.75545 21.2012 5.6618C21.2012 5.56815 21.1819 5.47551 21.1443 5.38971C21.1068 5.30391 21.0519 5.2268 20.9832 5.16322L15.5519 0.184523C15.4858 0.122364 15.408 0.0740678 15.3229 0.0424871C15.2379 0.0109064 15.1474 -0.00331902 15.0568 0.00065065Z" fill="#3C4BA6"/>
</svg>